<svg xmlns="http://www.w3.org/2000/svg" width="1139.171015625" height="250.0"><line x1="34.7588671875" x2="1109.171015625" y1="25.0" y2="25.0" stroke="#1967d2" stroke-width="1" /><line x1="34.7588671875" x2="1109.171015625" y1="75.0" y2="75.0" stroke="#1967d2" stroke-width="1" /><line x1="34.7588671875" x2="1109.171015625" y1="125.0" y2="125.0" stroke="#1967d2" stroke-width="1" /><line x1="34.7588671875" x2="1109.171015625" y1="175.0" y2="175.0" stroke="#1967d2" stroke-width="1" /><line x1="34.7588671875" x2="1109.171015625" y1="225.0" y2="225.0" stroke="#1967d2" stroke-width="1" /><line x1="198.55541015625002" x2="198.55541015625002" y1="25.0" y2="75.0" stroke="black" stroke-width="3" /><line x1="336.6307617187501" x2="336.6307617187501" y1="25.0" y2="125.0" stroke="black" stroke-width="3" /><line x1="474.7061132812501" x2="474.7061132812501" y1="75.0" y2="125.0" stroke="black" stroke-width="3" /><line x1="612.7814648437502" x2="612.7814648437502" y1="75.0" y2="175.0" stroke="black" stroke-width="3" /><line x1="750.8568164062501" x2="750.8568164062501" y1="125.0" y2="175.0" stroke="black" stroke-width="3" /><line x1="888.9321679687503" x2="888.9321679687503" y1="175.0" y2="225.0" stroke="black" stroke-width="3" /><rect x="10.0" y="5.0" width="49.517734375" height="40" stroke="black" fill="white" stroke-width="0" /><text x="34.7588671875" y="25.0" dominant-baseline="middle" text-anchor="middle" font-size="14px" font-family="Arial">(0, 0): </text><rect x="10.0" y="55.0" width="49.517734375" height="40" stroke="black" fill="white" stroke-width="0" /><text x="34.7588671875" y="75.0" dominant-baseline="middle" text-anchor="middle" font-size="14px" font-family="Arial">(0, 1): </text><rect x="10.0" y="105.0" width="49.517734375" height="40" stroke="black" fill="white" stroke-width="0" /><text x="34.7588671875" y="125.0" dominant-baseline="middle" text-anchor="middle" font-size="14px" font-family="Arial">(0, 2): </text><rect x="10.0" y="155.0" width="49.517734375" height="40" stroke="black" fill="white" stroke-width="0" /><text x="34.7588671875" y="175.0" dominant-baseline="middle" text-anchor="middle" font-size="14px" font-family="Arial">(0, 3): </text><rect x="10.0" y="205.0" width="49.517734375" height="40" stroke="black" fill="white" stroke-width="0" /><text x="34.7588671875" y="225.0" dominant-baseline="middle" text-anchor="middle" font-size="14px" font-family="Arial">(0, 4): </text><rect x="79.517734375" y="5.0" width="40" height="40" stroke="black" fill="white" stroke-width="1" /><text x="99.517734375" y="25.0" dominant-baseline="middle" text-anchor="middle" font-size="18px" font-family="Arial">H</text><rect x="79.517734375" y="55.0" width="40" height="40" stroke="black" fill="white" stroke-width="1" /><text x="99.517734375" y="75.0" dominant-baseline="middle" text-anchor="middle" font-size="18px" font-family="Arial">H</text><rect x="79.517734375" y="105.0" width="40" height="40" stroke="black" fill="white" stroke-width="1" /><text x="99.517734375" y="125.0" dominant-baseline="middle" text-anchor="middle" font-size="18px" font-family="Arial">H</text><rect x="79.517734375" y="155.0" width="40" height="40" stroke="black" fill="white" stroke-width="1" /><text x="99.517734375" y="175.0" dominant-baseline="middle" text-anchor="middle" font-size="18px" font-family="Arial">H</text><rect x="79.517734375" y="205.0" width="40" height="40" stroke="black" fill="white" stroke-width="1" /><text x="99.517734375" y="225.0" dominant-baseline="middle" text-anchor="middle" font-size="18px" font-family="Arial">H</text><rect x="139.517734375" y="5.0" width="118.07535156250003" height="40" stroke="black" fill="white" stroke-width="1" /><text x="198.55541015625002" y="25.0" dominant-baseline="middle" text-anchor="middle" font-size="14px" font-family="Arial">ZZ</text><rect x="139.517734375" y="55.0" width="118.07535156250003" height="40" stroke="black" fill="white" stroke-width="1" /><text x="198.55541015625002" y="75.0" dominant-baseline="middle" text-anchor="middle" font-size="14px" font-family="Arial">ZZ^(1.0*alpha)</text><rect x="277.59308593750006" y="5.0" width="118.07535156250003" height="40" stroke="black" fill="white" stroke-width="1" /><text x="336.6307617187501" y="25.0" dominant-baseline="middle" text-anchor="middle" font-size="14px" font-family="Arial">ZZ</text><rect x="277.59308593750006" y="105.0" width="118.07535156250003" height="40" stroke="black" fill="white" stroke-width="1" /><text x="336.6307617187501" y="125.0" dominant-baseline="middle" text-anchor="middle" font-size="14px" font-family="Arial">ZZ^(5.0*alpha)</text><rect x="415.6684375000001" y="55.0" width="118.07535156250003" height="40" stroke="black" fill="white" stroke-width="1" /><text x="474.7061132812501" y="75.0" dominant-baseline="middle" text-anchor="middle" font-size="14px" font-family="Arial">ZZ</text><rect x="415.6684375000001" y="105.0" width="118.07535156250003" height="40" stroke="black" fill="white" stroke-width="1" /><text x="474.7061132812501" y="125.0" dominant-baseline="middle" text-anchor="middle" font-size="14px" font-family="Arial">ZZ^(7.0*alpha)</text><rect x="553.7437890625001" y="55.0" width="118.07535156250003" height="40" stroke="black" fill="white" stroke-width="1" /><text x="612.7814648437502" y="75.0" dominant-baseline="middle" text-anchor="middle" font-size="14px" font-family="Arial">ZZ</text><rect x="553.7437890625001" y="155.0" width="118.07535156250003" height="40" stroke="black" fill="white" stroke-width="1" /><text x="612.7814648437502" y="175.0" dominant-baseline="middle" text-anchor="middle" font-size="14px" font-family="Arial">ZZ^(2.0*alpha)</text><rect x="691.819140625" y="105.0" width="118.07535156250003" height="40" stroke="black" fill="white" stroke-width="1" /><text x="750.8568164062501" y="125.0" dominant-baseline="middle" text-anchor="middle" font-size="14px" font-family="Arial">ZZ</text><rect x="691.819140625" y="155.0" width="118.07535156250003" height="40" stroke="black" fill="white" stroke-width="1" /><text x="750.8568164062501" y="175.0" dominant-baseline="middle" text-anchor="middle" font-size="14px" font-family="Arial">ZZ^(4.0*alpha)</text><rect x="829.8944921875002" y="155.0" width="118.07535156250003" height="40" stroke="black" fill="white" stroke-width="1" /><text x="888.9321679687503" y="175.0" dominant-baseline="middle" text-anchor="middle" font-size="14px" font-family="Arial">ZZ</text><rect x="829.8944921875002" y="205.0" width="118.07535156250003" height="40" stroke="black" fill="white" stroke-width="1" /><text x="888.9321679687503" y="225.0" dominant-baseline="middle" text-anchor="middle" font-size="14px" font-family="Arial">ZZ^(3.0*alpha)</text><rect x="967.9698437500002" y="5.0" width="61.201171875" height="40" stroke="black" fill="white" stroke-width="1" /><text x="998.5704296875002" y="25.0" dominant-baseline="middle" text-anchor="middle" font-size="14px" font-family="Arial">X^beta</text><rect x="967.9698437500002" y="55.0" width="61.201171875" height="40" stroke="black" fill="white" stroke-width="1" /><text x="998.5704296875002" y="75.0" dominant-baseline="middle" text-anchor="middle" font-size="14px" font-family="Arial">X^beta</text><rect x="967.9698437500002" y="105.0" width="61.201171875" height="40" stroke="black" fill="white" stroke-width="1" /><text x="998.5704296875002" y="125.0" dominant-baseline="middle" text-anchor="middle" font-size="14px" font-family="Arial">X^beta</text><rect x="967.9698437500002" y="155.0" width="61.201171875" height="40" stroke="black" fill="white" stroke-width="1" /><text x="998.5704296875002" y="175.0" dominant-baseline="middle" text-anchor="middle" font-size="14px" font-family="Arial">X^beta</text><rect x="967.9698437500002" y="205.0" width="61.201171875" height="40" stroke="black" fill="white" stroke-width="1" /><text x="998.5704296875002" y="225.0" dominant-baseline="middle" text-anchor="middle" font-size="14px" font-family="Arial">X^beta</text><rect x="1049.171015625" y="5.0" width="40" height="40" stroke="black" fill="white" stroke-width="1" /><text x="1069.171015625" y="25.0" dominant-baseline="middle" text-anchor="middle" font-size="18px" font-family="Arial">M</text><rect x="1049.171015625" y="55.0" width="40" height="40" stroke="black" fill="white" stroke-width="1" /><text x="1069.171015625" y="75.0" dominant-baseline="middle" text-anchor="middle" font-size="18px" font-family="Arial">M</text><rect x="1049.171015625" y="105.0" width="40" height="40" stroke="black" fill="white" stroke-width="1" /><text x="1069.171015625" y="125.0" dominant-baseline="middle" text-anchor="middle" font-size="18px" font-family="Arial">M</text><rect x="1049.171015625" y="155.0" width="40" height="40" stroke="black" fill="white" stroke-width="1" /><text x="1069.171015625" y="175.0" dominant-baseline="middle" text-anchor="middle" font-size="18px" font-family="Arial">M</text><rect x="1049.171015625" y="205.0" width="40" height="40" stroke="black" fill="white" stroke-width="1" /><text x="1069.171015625" y="225.0" dominant-baseline="middle" text-anchor="middle" font-size="18px" font-family="Arial">M</text></svg>