<svg xmlns="http://www.w3.org/2000/svg" width="1489.808671875" height="250.0"><line x1="34.7588671875" x2="1459.808671875" y1="25.0" y2="25.0" stroke="#1967d2" stroke-width="1" /><line x1="34.7588671875" x2="1459.808671875" y1="75.0" y2="75.0" stroke="#1967d2" stroke-width="1" /><line x1="34.7588671875" x2="1459.808671875" y1="125.0" y2="125.0" stroke="#1967d2" stroke-width="1" /><line x1="34.7588671875" x2="1459.808671875" y1="175.0" y2="175.0" stroke="#1967d2" stroke-width="1" /><line x1="34.7588671875" x2="1459.808671875" y1="225.0" y2="225.0" stroke="#1967d2" stroke-width="1" /><line x1="174.76580078125" x2="174.76580078125" y1="25.0" y2="75.0" stroke="black" stroke-width="3" /><line x1="263.16685546875" x2="263.16685546875" y1="25.0" y2="125.0" stroke="black" stroke-width="3" /><line x1="354.1801953125" x2="354.1801953125" y1="75.0" y2="125.0" stroke="black" stroke-width="3" /><line x1="449.9008984375" x2="449.9008984375" y1="75.0" y2="175.0" stroke="black" stroke-width="3" /><line x1="545.5351953125" x2="545.5351953125" y1="125.0" y2="175.0" stroke="black" stroke-width="3" /><line x1="638.64361328125" x2="638.64361328125" y1="175.0" y2="225.0" stroke="black" stroke-width="3" /><line x1="810.2944335937501" x2="810.2944335937501" y1="25.0" y2="75.0" stroke="black" stroke-width="3" /><line x1="896.1532031250001" x2="896.1532031250001" y1="25.0" y2="125.0" stroke="black" stroke-width="3" /><line x1="982.3204101562501" x2="982.3204101562501" y1="75.0" y2="125.0" stroke="black" stroke-width="3" /><line x1="1075.467109375" x2="1075.467109375" y1="75.0" y2="175.0" stroke="black" stroke-width="3" /><line x1="1170.83125" x2="1170.83125" y1="125.0" y2="175.0" stroke="black" stroke-width="3" /><line x1="1263.66951171875" x2="1263.66951171875" y1="175.0" y2="225.0" stroke="black" stroke-width="3" /><rect x="10.0" y="5.0" width="49.517734375" height="40" stroke="black" fill="white" stroke-width="0" /><text x="34.7588671875" y="25.0" dominant-baseline="middle" text-anchor="middle" font-size="14px" font-family="Arial">(0, 0): </text><rect x="10.0" y="55.0" width="49.517734375" height="40" stroke="black" fill="white" stroke-width="0" /><text x="34.7588671875" y="75.0" dominant-baseline="middle" text-anchor="middle" font-size="14px" font-family="Arial">(0, 1): </text><rect x="10.0" y="105.0" width="49.517734375" height="40" stroke="black" fill="white" stroke-width="0" /><text x="34.7588671875" y="125.0" dominant-baseline="middle" text-anchor="middle" font-size="14px" font-family="Arial">(0, 2): </text><rect x="10.0" y="155.0" width="49.517734375" height="40" stroke="black" fill="white" stroke-width="0" /><text x="34.7588671875" y="175.0" dominant-baseline="middle" text-anchor="middle" font-size="14px" font-family="Arial">(0, 3): </text><rect x="10.0" y="205.0" width="49.517734375" height="40" stroke="black" fill="white" stroke-width="0" /><text x="34.7588671875" y="225.0" dominant-baseline="middle" text-anchor="middle" font-size="14px" font-family="Arial">(0, 4): </text><rect x="79.517734375" y="5.0" width="40" height="40" stroke="black" fill="white" stroke-width="1" /><text x="99.517734375" y="25.0" dominant-baseline="middle" text-anchor="middle" font-size="18px" font-family="Arial">H</text><rect x="79.517734375" y="55.0" width="40" height="40" stroke="black" fill="white" stroke-width="1" /><text x="99.517734375" y="75.0" dominant-baseline="middle" text-anchor="middle" font-size="18px" font-family="Arial">H</text><rect x="79.517734375" y="105.0" width="40" height="40" stroke="black" fill="white" stroke-width="1" /><text x="99.517734375" y="125.0" dominant-baseline="middle" text-anchor="middle" font-size="18px" font-family="Arial">H</text><rect x="79.517734375" y="155.0" width="40" height="40" stroke="black" fill="white" stroke-width="1" /><text x="99.517734375" y="175.0" dominant-baseline="middle" text-anchor="middle" font-size="18px" font-family="Arial">H</text><rect x="79.517734375" y="205.0" width="40" height="40" stroke="black" fill="white" stroke-width="1" /><text x="99.517734375" y="225.0" dominant-baseline="middle" text-anchor="middle" font-size="18px" font-family="Arial">H</text><rect x="139.51773437499997" y="5.0" width="70.49613281250001" height="40" stroke="black" fill="white" stroke-width="1" /><text x="174.76580078125" y="25.0" dominant-baseline="middle" text-anchor="middle" font-size="14px" font-family="Arial">ZZ</text><rect x="139.51773437499997" y="55.0" width="70.49613281250001" height="40" stroke="black" fill="white" stroke-width="1" /><text x="174.76580078125" y="75.0" dominant-baseline="middle" text-anchor="middle" font-size="14px" font-family="Arial">ZZ^0.78</text><rect x="230.01386718749998" y="5.0" width="66.3059765625" height="40" stroke="black" fill="white" stroke-width="1" /><text x="263.16685546875" y="25.0" dominant-baseline="middle" text-anchor="middle" font-size="14px" font-family="Arial">ZZ</text><rect x="230.01386718749998" y="105.0" width="66.3059765625" height="40" stroke="black" fill="white" stroke-width="1" /><text x="263.16685546875" y="125.0" dominant-baseline="middle" text-anchor="middle" font-size="14px" font-family="Arial">ZZ^-0.1</text><rect x="316.31984375" y="55.0" width="75.72070312500001" height="40" stroke="black" fill="white" stroke-width="1" /><text x="354.1801953125" y="75.0" dominant-baseline="middle" text-anchor="middle" font-size="14px" font-family="Arial">ZZ</text><rect x="316.31984375" y="105.0" width="75.72070312500001" height="40" stroke="black" fill="white" stroke-width="1" /><text x="354.1801953125" y="125.0" dominant-baseline="middle" text-anchor="middle" font-size="14px" font-family="Arial">ZZ^-0.54</text><rect x="412.040546875" y="55.0" width="75.72070312500001" height="40" stroke="black" fill="white" stroke-width="1" /><text x="449.9008984375" y="75.0" dominant-baseline="middle" text-anchor="middle" font-size="14px" font-family="Arial">ZZ</text><rect x="412.040546875" y="155.0" width="75.72070312500001" height="40" stroke="black" fill="white" stroke-width="1" /><text x="449.9008984375" y="175.0" dominant-baseline="middle" text-anchor="middle" font-size="14px" font-family="Arial">ZZ^-0.44</text><rect x="507.76125" y="105.0" width="75.54789062500001" height="40" stroke="black" fill="white" stroke-width="1" /><text x="545.5351953125" y="125.0" dominant-baseline="middle" text-anchor="middle" font-size="14px" font-family="Arial">ZZ</text><rect x="507.76125" y="155.0" width="75.54789062500001" height="40" stroke="black" fill="white" stroke-width="1" /><text x="545.5351953125" y="175.0" dominant-baseline="middle" text-anchor="middle" font-size="14px" font-family="Arial">ZZ^-0.88</text><rect x="603.309140625" y="155.0" width="70.6689453125" height="40" stroke="black" fill="white" stroke-width="1" /><text x="638.64361328125" y="175.0" dominant-baseline="middle" text-anchor="middle" font-size="14px" font-family="Arial">ZZ</text><rect x="603.309140625" y="205.0" width="70.6689453125" height="40" stroke="black" fill="white" stroke-width="1" /><text x="638.64361328125" y="225.0" dominant-baseline="middle" text-anchor="middle" font-size="14px" font-family="Arial">ZZ^0.34</text><rect x="693.9780859375" y="5.0" width="61.2903125" height="40" stroke="black" fill="white" stroke-width="1" /><text x="724.6232421875001" y="25.0" dominant-baseline="middle" text-anchor="middle" font-size="14px" font-family="Arial">X^0.24</text><rect x="693.9780859375" y="55.0" width="61.2903125" height="40" stroke="black" fill="white" stroke-width="1" /><text x="724.6232421875001" y="75.0" dominant-baseline="middle" text-anchor="middle" font-size="14px" font-family="Arial">X^0.24</text><rect x="693.9780859375" y="105.0" width="61.2903125" height="40" stroke="black" fill="white" stroke-width="1" /><text x="724.6232421875001" y="125.0" dominant-baseline="middle" text-anchor="middle" font-size="14px" font-family="Arial">X^0.24</text><rect x="693.9780859375" y="155.0" width="61.2903125" height="40" stroke="black" fill="white" stroke-width="1" /><text x="724.6232421875001" y="175.0" dominant-baseline="middle" text-anchor="middle" font-size="14px" font-family="Arial">X^0.24</text><rect x="693.9780859375" y="205.0" width="61.2903125" height="40" stroke="black" fill="white" stroke-width="1" /><text x="724.6232421875001" y="225.0" dominant-baseline="middle" text-anchor="middle" font-size="14px" font-family="Arial">X^0.24</text><rect x="775.2683984375001" y="5.0" width="70.0520703125" height="40" stroke="black" fill="white" stroke-width="1" /><text x="810.2944335937501" y="25.0" dominant-baseline="middle" text-anchor="middle" font-size="14px" font-family="Arial">ZZ</text><rect x="775.2683984375001" y="55.0" width="70.0520703125" height="40" stroke="black" fill="white" stroke-width="1" /><text x="810.2944335937501" y="75.0" dominant-baseline="middle" text-anchor="middle" font-size="14px" font-family="Arial">ZZ^0.92</text><rect x="865.3204687500001" y="5.0" width="61.66546875" height="40" stroke="black" fill="white" stroke-width="1" /><text x="896.1532031250001" y="25.0" dominant-baseline="middle" text-anchor="middle" font-size="14px" font-family="Arial">ZZ</text><rect x="865.3204687500001" y="105.0" width="61.66546875" height="40" stroke="black" fill="white" stroke-width="1" /><text x="896.1532031250001" y="125.0" dominant-baseline="middle" text-anchor="middle" font-size="14px" font-family="Arial">ZZ^0.6</text><rect x="946.9859375000001" y="55.0" width="70.6689453125" height="40" stroke="black" fill="white" stroke-width="1" /><text x="982.3204101562501" y="75.0" dominant-baseline="middle" text-anchor="middle" font-size="14px" font-family="Arial">ZZ</text><rect x="946.9859375000001" y="105.0" width="70.6689453125" height="40" stroke="black" fill="white" stroke-width="1" /><text x="982.3204101562501" y="125.0" dominant-baseline="middle" text-anchor="middle" font-size="14px" font-family="Arial">ZZ^0.44</text><rect x="1037.6548828125" y="55.0" width="75.62445312500002" height="40" stroke="black" fill="white" stroke-width="1" /><text x="1075.467109375" y="75.0" dominant-baseline="middle" text-anchor="middle" font-size="14px" font-family="Arial">ZZ</text><rect x="1037.6548828125" y="155.0" width="75.62445312500002" height="40" stroke="black" fill="white" stroke-width="1" /><text x="1075.467109375" y="175.0" dominant-baseline="middle" text-anchor="middle" font-size="14px" font-family="Arial">ZZ^-0.16</text><rect x="1133.2793359375" y="105.0" width="75.103828125" height="40" stroke="black" fill="white" stroke-width="1" /><text x="1170.83125" y="125.0" dominant-baseline="middle" text-anchor="middle" font-size="14px" font-family="Arial">ZZ</text><rect x="1133.2793359375" y="155.0" width="75.103828125" height="40" stroke="black" fill="white" stroke-width="1" /><text x="1170.83125" y="175.0" dominant-baseline="middle" text-anchor="middle" font-size="14px" font-family="Arial">ZZ^-0.32</text><rect x="1228.3831640625" y="155.0" width="70.5726953125" height="40" stroke="black" fill="white" stroke-width="1" /><text x="1263.66951171875" y="175.0" dominant-baseline="middle" text-anchor="middle" font-size="14px" font-family="Arial">ZZ</text><rect x="1228.3831640625" y="205.0" width="70.5726953125" height="40" stroke="black" fill="white" stroke-width="1" /><text x="1263.66951171875" y="225.0" dominant-baseline="middle" text-anchor="middle" font-size="14px" font-family="Arial">ZZ^0.76</text><rect x="1318.955859375" y="5.0" width="60.8528125" height="40" stroke="black" fill="white" stroke-width="1" /><text x="1349.382265625" y="25.0" dominant-baseline="middle" text-anchor="middle" font-size="14px" font-family="Arial">X^0.25</text><rect x="1318.955859375" y="55.0" width="60.8528125" height="40" stroke="black" fill="white" stroke-width="1" /><text x="1349.382265625" y="75.0" dominant-baseline="middle" text-anchor="middle" font-size="14px" font-family="Arial">X^0.25</text><rect x="1318.955859375" y="105.0" width="60.8528125" height="40" stroke="black" fill="white" stroke-width="1" /><text x="1349.382265625" y="125.0" dominant-baseline="middle" text-anchor="middle" font-size="14px" font-family="Arial">X^0.25</text><rect x="1318.955859375" y="155.0" width="60.8528125" height="40" stroke="black" fill="white" stroke-width="1" /><text x="1349.382265625" y="175.0" dominant-baseline="middle" text-anchor="middle" font-size="14px" font-family="Arial">X^0.25</text><rect x="1318.955859375" y="205.0" width="60.8528125" height="40" stroke="black" fill="white" stroke-width="1" /><text x="1349.382265625" y="225.0" dominant-baseline="middle" text-anchor="middle" font-size="14px" font-family="Arial">X^0.25</text><rect x="1399.808671875" y="5.0" width="40" height="40" stroke="black" fill="white" stroke-width="1" /><text x="1419.808671875" y="25.0" dominant-baseline="middle" text-anchor="middle" font-size="18px" font-family="Arial">M</text><rect x="1399.808671875" y="55.0" width="40" height="40" stroke="black" fill="white" stroke-width="1" /><text x="1419.808671875" y="75.0" dominant-baseline="middle" text-anchor="middle" font-size="18px" font-family="Arial">M</text><rect x="1399.808671875" y="105.0" width="40" height="40" stroke="black" fill="white" stroke-width="1" /><text x="1419.808671875" y="125.0" dominant-baseline="middle" text-anchor="middle" font-size="18px" font-family="Arial">M</text><rect x="1399.808671875" y="155.0" width="40" height="40" stroke="black" fill="white" stroke-width="1" /><text x="1419.808671875" y="175.0" dominant-baseline="middle" text-anchor="middle" font-size="18px" font-family="Arial">M</text><rect x="1399.808671875" y="205.0" width="40" height="40" stroke="black" fill="white" stroke-width="1" /><text x="1419.808671875" y="225.0" dominant-baseline="middle" text-anchor="middle" font-size="18px" font-family="Arial">M</text></svg>